<?xml version="1.0" encoding="utf-8"?>
<!-- Generator: Adobe Illustrator 18.1.1, SVG Export Plug-In . SVG Version: 6.00 Build 0)  -->
<!DOCTYPE svg PUBLIC "-//W3C//DTD SVG 1.1//EN" "http://www.w3.org/Graphics/SVG/1.1/DTD/svg11.dtd">
<svg version="1.1" id="Layer_1" xmlns="http://www.w3.org/2000/svg" xmlns:xlink="http://www.w3.org/1999/xlink" x="0px" y="0px"
	 viewBox="0 0 136.5 160" enable-background="new 0 0 136.5 160" xml:space="preserve">
<g>
	<path fill="#FFFFFF" d="M12.9,114.9C5.8,114.9,0,109.1,0,102l0-39.6c0-7.1,5.8-12.9,12.9-12.9c3.5,0,6.7,1.3,9.1,3.8
		c2.4,2.4,3.8,5.7,3.8,9.1l0,39.6c0,3.4-1.3,6.7-3.8,9.1C19.6,113.6,16.4,114.9,12.9,114.9"/>
	<path fill="#FFFFFF" d="M12.9,53c-5.2,0-9.4,4.2-9.4,9.4l0,39.6c0,5.2,4.2,9.5,9.4,9.5c5.2,0,9.4-4.2,9.4-9.5l0-39.6
		C22.4,57.2,18.1,53,12.9,53"/>
	<path fill="#FFFFFF" d="M114.3,54.9l-3.5,0l-85.1,0l-3.5,0l0-3.5c0-14.3,7.8-27.5,20.5-35.4l-4.9-9C37.1,6,37,4.7,37.3,3.5
		c0.4-1.2,1.2-2.3,2.3-2.9C40.3,0.2,41.1,0,41.9,0c1.8,0,3.4,1,4.2,2.5l5.2,9.4c5.4-2,11-3,16.9-3c5.9,0,11.6,1,17,3l5.2-9.4
		C91.2,1,92.8,0,94.5,0c0.8,0,1.6,0.2,2.3,0.6c1.2,0.6,2,1.7,2.3,2.9c0.4,1.2,0.2,2.5-0.4,3.6l-4.9,9c12.7,7.9,20.5,21.1,20.5,35.3
		L114.3,54.9z"/>
	<path fill="#FFFFFF" d="M89.1,17.5l6.6-12C96,4.8,95.8,4,95.2,3.6c-0.6-0.3-1.4-0.1-1.8,0.5l-6.7,12.2c-5.6-2.5-11.9-3.9-18.5-3.9
		c-6.6,0-12.9,1.4-18.5,3.9L43.1,4.2c-0.3-0.6-1.1-0.9-1.8-0.5c-0.6,0.3-0.9,1.1-0.5,1.8l6.6,12c-13,6.7-21.7,19.4-21.7,34l85.1,0
		C110.8,36.9,102,24.2,89.1,17.5 M48.9,36.1c-2,0-3.6-1.6-3.6-3.6c0-2,1.6-3.6,3.6-3.6c2,0,3.6,1.6,3.6,3.6
		C52.4,34.5,50.8,36.1,48.9,36.1 M87.6,36.1c-2,0-3.6-1.6-3.6-3.6c0-2,1.6-3.6,3.6-3.6c2,0,3.6,1.6,3.6,3.6
		C91.2,34.5,89.6,36.1,87.6,36.1"/>
	<path fill="#FFFFFF" d="M52.4,160c-7.1,0-12.9-5.8-12.9-12.9l0-17.5l-3.4,0c-3.6,0-7-1.4-9.6-4c-2.6-2.6-4-6-4-9.6l0-61.3l0-3.5
		l3.5,0l84.5,0l3.5,0l0,3.5l0,61.3c0,7.5-6.1,13.6-13.6,13.6l-3.4,0l0,17.5c0,7.1-5.8,12.9-12.9,12.9c-3.5,0-6.7-1.3-9.1-3.8
		c-2.4-2.4-3.8-5.7-3.8-9.1l0-17.5l-5.8,0v17.5C65.4,154.2,59.6,160,52.4,160"/>
	<path fill="#FFFFFF" d="M26,116.1c0,5.6,4.5,10.1,10.1,10.1l6.9,0l0,20.9c0,5.2,4.2,9.4,9.4,9.4c5.2,0,9.4-4.2,9.4-9.5l0-20.9
		l12.8,0l0,20.9c0,5.2,4.2,9.5,9.4,9.4c5.2,0,9.5-4.2,9.5-9.5l0-20.9l6.9,0c5.6,0,10.1-4.5,10.1-10.1l0-61.3l-84.5,0L26,116.1z"/>
	<path fill="#FFFFFF" d="M123.6,114.9c-7.1,0-12.9-5.8-12.9-12.9l0-39.6c0-7.1,5.8-12.9,12.9-12.9c7.1,0,12.9,5.8,12.9,12.9l0,39.6
		C136.5,109.1,130.7,114.9,123.6,114.9"/>
	<path fill="#FFFFFF" d="M123.6,53c-5.2,0-9.4,4.2-9.4,9.4l0,39.6c0,5.2,4.2,9.4,9.4,9.4c5.2,0,9.4-4.2,9.4-9.4l0-39.6
		C133,57.2,128.8,53,123.6,53"/>
	<path fill="#A4C439" d="M12.9,53c-5.2,0-9.4,4.2-9.4,9.4l0,39.6c0,5.2,4.2,9.5,9.4,9.4c5.2,0,9.4-4.2,9.4-9.4l0-39.6
		C22.4,57.2,18.1,53,12.9,53 M89.1,17.5l6.6-12C96,4.8,95.8,4,95.2,3.6c-0.6-0.3-1.4-0.1-1.8,0.5l-6.7,12.2
		c-5.6-2.5-11.9-3.9-18.5-3.9c-6.6,0-12.9,1.4-18.5,3.9L43.1,4.2c-0.3-0.6-1.1-0.9-1.8-0.5c-0.6,0.3-0.9,1.1-0.5,1.8l6.6,12
		c-13,6.7-21.7,19.4-21.7,34l85.1,0C110.8,36.9,102,24.2,89.1,17.5 M48.9,36.1c-2,0-3.6-1.6-3.6-3.6c0-2,1.6-3.6,3.6-3.6
		c2,0,3.6,1.6,3.6,3.6C52.4,34.5,50.8,36.1,48.9,36.1 M87.6,36.1c-2,0-3.6-1.6-3.6-3.6c0-2,1.6-3.6,3.6-3.6c2,0,3.6,1.6,3.6,3.6
		C91.2,34.5,89.6,36.1,87.6,36.1 M26,54.8l0,61.3c0,5.6,4.5,10.1,10.1,10.1l6.9,0l0,20.9c0,5.2,4.2,9.4,9.4,9.4
		c5.2,0,9.4-4.2,9.5-9.5l0-20.9l12.8,0l0,20.9c0,5.2,4.2,9.5,9.4,9.4c5.2,0,9.5-4.2,9.5-9.5l0-20.9l6.9,0c5.6,0,10.1-4.5,10.1-10.1
		l0-61.3L26,54.8z M133,62.4c0-5.2-4.2-9.4-9.4-9.4c-5.2,0-9.4,4.2-9.4,9.4l0,39.6c0,5.2,4.2,9.4,9.4,9.4c5.2,0,9.4-4.2,9.4-9.4
		L133,62.4z"/>
</g>
</svg>
