<?xml version="1.0" encoding="utf-8"?>
<!-- Generator: Adobe Illustrator 18.1.1, SVG Export Plug-In . SVG Version: 6.00 Build 0)  -->
<!DOCTYPE svg PUBLIC "-//W3C//DTD SVG 1.1//EN" "http://www.w3.org/Graphics/SVG/1.1/DTD/svg11.dtd">
<svg version="1.1" id="Layer_1" xmlns="http://www.w3.org/2000/svg" xmlns:xlink="http://www.w3.org/1999/xlink" x="0px" y="0px"
	 viewBox="-34 36 130.3 160" enable-background="new -34 36 130.3 160" xml:space="preserve">
<g>
	<title>Layer 1</title>
	<g id="svg_1">
		<path d="M74.8,121c0.2,24.2,21.2,32.3,21.5,32.4c-0.2,0.6-3.4,11.5-11.1,22.8c-6.7,9.7-13.6,19.5-24.5,19.7
			c-10.7,0.2-14.2-6.4-26.4-6.4c-12.2,0-16.1,6.2-26.2,6.6c-10.5,0.4-18.5-10.5-25.3-20.3c-13.7-19.9-24.2-56.1-10.1-80.6
			c7-12.2,19.5-19.9,33.1-20.1c10.3-0.2,20.1,7,26.4,7c6.3,0,18.2-8.6,30.6-7.3c5.2,0.2,19.9,2.1,29.3,15.9
			C91.3,91,74.6,100.8,74.8,121 M54.7,61.5C60.3,54.8,64,45.4,63,36c-8.1,0.3-17.8,5.4-23.6,12.1c-5.2,6-9.7,15.6-8.5,24.7
			C39.9,73.6,49.1,68.3,54.7,61.5"/>
	</g>
</g>
</svg>
