<?xml version="1.0" encoding="UTF-8" standalone="no"?>
<svg width="302px" height="195px" viewBox="0 0 302 195" version="1.1" xmlns="http://www.w3.org/2000/svg" xmlns:xlink="http://www.w3.org/1999/xlink">
    <!-- Generator: sketchtool 43.2 (39069) - http://www.bohemiancoding.com/sketch -->
    <title>D907BC96-8BAD-4C50-965F-E3FB148E8BD3</title>
    <desc>Created with sketchtool.</desc>
    <defs>
        <rect id="path-1" x="0" y="0" width="369" height="208"></rect>
        <rect id="path-3" x="106.171026" y="98.8" width="6.68209256" height="23.7714286" rx="3.34104628"></rect>
        <path d="M135.054051,76.3847997 C134.045163,62.7420928 122.662689,52 108.769618,52 C95.280685,52 84.1628656,62.1289991 82.6003497,75.1947601 C81.6856351,74.6188811 80.603002,74.2857143 79.4426559,74.2857143 C76.1689594,74.2857143 73.5030181,76.9471559 73.5030181,80.2302105 L73.5030181,80.9697895 C73.5030181,84.2515217 76.1622845,86.9142857 79.4426559,86.9142857 C80.7397889,86.9142857 81.941506,86.4964466 82.9197739,85.7876596 C85.3233862,97.8725371 95.9832242,106.971429 108.769618,106.971429 C121.993198,106.971429 132.938036,97.2370219 134.835635,84.5442871 C135.919649,85.9834867 137.642012,86.9142857 139.581489,86.9142857 C142.855185,86.9142857 145.521127,84.2528441 145.521127,80.9697895 L145.521127,80.2302105 C145.521127,76.9484783 142.86186,74.2857143 139.581489,74.2857143 C137.770021,74.2857143 136.14464,75.1006084 135.054051,76.3847997 Z" id="path-4"></path>
        <path d="M1.13812778,1.94327486 C4.13025731,1.20921856 7.7152588,4.220302 15.6458594,0.692696757 C23.5764599,-2.83490849 19.7760961,10.2994661 10.3852481,11.235254 C0.9944001,12.1710419 -1.85400174,2.67733115 1.13812778,1.94327486 Z" id="path-5"></path>
        <path d="M1.13812778,1.94327486 C4.13025731,1.20921856 8.731468,2.67351919 15.6458594,0.692696757 C22.5602507,-1.28812567 19.7760961,10.2994661 10.3852481,11.235254 C0.9944001,12.1710419 -1.85400174,2.67733115 1.13812778,1.94327486 Z" id="path-7"></path>
        <path d="M50.893929,119.410351 C51.3320543,119.755077 51.9212506,119.66079 52.2174836,119.187702 L66.0558355,97.0876854 C66.3486893,96.6199943 66.2073437,96.007136 65.7433075,95.7207879 L57.9880072,90.9351367 C57.0487794,90.3555567 55.7979595,90.6241571 55.18175,91.5538911 L42.6830996,110.411798 C42.0724744,111.333107 42.2883635,112.639324 43.1571148,113.322874 L50.893929,119.410351 Z" id="path-9"></path>
        <path d="M4.65568324,4.62727139 C4.42757446,2.99440219 5.58335449,1.67070016 7.24050135,1.67070016 L26.5132184,1.67070016 C28.1688828,1.67070016 29.3191202,3.00047977 29.0878768,4.63995716 C29.0878768,4.63995716 25.2986693,30.2344972 25.2986693,43.413264 C25.2986693,56.5920308 25.5962757,54.4613736 25.5962757,54.4613736 C25.8907737,56.6483718 24.3439336,58.4212841 22.1296937,58.4212841 L12.355733,58.4212841 C10.1466947,58.4212841 8.53619562,56.6414103 8.7275946,54.4289849 C8.7275946,54.4289849 9.18675744,51.1314158 9.18675744,43.8521038 C9.18675744,36.5727918 4.65568324,4.62727139 4.65568324,4.62727139 Z" id="path-10"></path>
        <path d="M4.65568324,4.62727139 C4.42757446,2.99440219 5.58335449,1.67070016 7.24050135,1.67070016 L26.5132184,1.67070016 C28.1688828,1.67070016 29.3191202,3.00047977 29.0878768,4.63995716 C29.0878768,4.63995716 25.2986693,30.2344972 25.2986693,43.413264 C25.2986693,56.5920308 25.5962757,54.4613736 25.5962757,54.4613736 C25.8907737,56.6483718 24.3439336,58.4212841 22.1296937,58.4212841 L12.355733,58.4212841 C10.1466947,58.4212841 8.53619562,56.6414103 8.7275946,54.4289849 C8.7275946,54.4289849 9.18675744,51.1314158 9.18675744,43.8521038 C9.18675744,36.5727918 4.65568324,4.62727139 4.65568324,4.62727139 Z" id="path-12"></path>
    </defs>
    <g id="Maker-Signup" stroke="none" stroke-width="1" fill="none" fill-rule="evenodd">
        <g id="Affiliate---Blogger-Finish" transform="translate(-567.000000, -210.000000)">
            <g id="Group-3" transform="translate(548.000000, 197.000000)">
                <mask id="mask-2" fill="white">
                    <use xlink:href="#path-1"></use>
                </mask>
                <use id="Mask" fill="#D8D8D8" opacity="0" xlink:href="#path-1"></use>
                <g mask="url(#mask-2)">
                    <g transform="translate(19.303823, 12.628571)">
                        <g id="Group-3-Copy" stroke="none" stroke-width="1" fill="none" fill-rule="evenodd" transform="translate(50.486922, 158.971429)">
                            <rect id="Rectangle-19" fill="#ECEFF6" x="22.7686117" y="7.21632653" width="65.8309859" height="30.6693878"></rect>
                            <rect id="Rectangle-19-Copy-2" fill="#D4DBEA" x="20.0462777" y="0" width="71.2756539" height="10.3469388"></rect>
                            <rect id="Rectangle-19-Copy" fill="#ECEFF6" x="2.722334" y="26.5306122" width="53.2092555" height="30.6693878"></rect>
                            <rect id="Rectangle-19-Copy-3" fill="#D4DBEA" x="0" y="19.3142857" width="58.6539235" height="10.3469388"></rect>
                        </g>
                        <g id="Group-3-Copy-2" stroke="none" stroke-width="1" fill="none" fill-rule="evenodd" transform="translate(178.931590, 168.628571)">
                            <rect id="Rectangle-19" fill="#ECEFF6" x="0.736309301" y="6.09842181" width="50.9029299" height="22.3423945"></rect>
                            <rect id="Rectangle-19-Copy-2" fill="#D4DBEA" x="2.96981891" y="0.686769159" width="54.9751643" height="10.5090876"></rect>
                        </g>
                        <g id="Group-2" stroke="none" stroke-width="1" fill="none" fill-rule="evenodd" transform="translate(45.289738, 0.000000)">
                            <g id="Group">
                                <g id="Rectangle-11">
                                    <use fill="#FFFFFF" fill-rule="evenodd" xlink:href="#path-3"></use>
                                    <rect stroke="#3C4B63" stroke-width="3" x="104.671026" y="97.3" width="9.68209256" height="26.7714286" rx="4.84104628"></rect>
                                </g>
                                <path d="M80.1709349,81.0713902 C80.1709349,81.0713902 75.3542282,67.5106241 79.9325171,57.494227 C84.510806,47.4778299 94.3909734,56.4098454 94.3909734,56.4098454 L80.1709349,81.0713902 Z" id="Path-41" fill="#3C4B63"></path>
                                <path d="M86.8672032,58.8860105 C86.8672032,58.8860105 90.3717783,42.3428571 99.9551739,42.3428571 C109.53857,42.3428571 142.792019,51.9331152 142.792019,56.4771859 C142.792019,61.0212567 137.601846,62.9329693 137.601846,62.9329693 C137.601846,62.9329693 141.021391,63.8604669 141.906705,65.7338118 C142.792019,67.6071567 126.724659,93.3302005 126.724659,93.3302005 L86.8672032,58.8860105 Z" id="Path-42" fill="#3C4B63"></path>
                                <g id="Combined-Shape">
                                    <use fill="#FFFFFF" fill-rule="evenodd" xlink:href="#path-4"></use>
                                    <path stroke="#3C4B63" stroke-width="3" d="M136.220543,73.5885285 C133.951727,60.41113 122.465404,50.5 108.769618,50.5 C95.3001535,50.5 83.9098574,60.1065116 81.4172121,73.0512085 C80.7810197,72.8763048 80.1180907,72.7857143 79.4426559,72.7857143 C75.338213,72.7857143 72.0030181,76.1210482 72.0030181,80.2302105 L72.0030181,80.9697895 C72.0030181,85.0800796 75.3339874,88.4142857 79.4426559,88.4142857 C80.2915614,88.4142857 81.1204538,88.2707172 81.9007298,87.9970783 C85.1682922,99.9410062 96.0879346,108.471429 108.769618,108.471429 C121.704165,108.471429 132.754388,99.6046881 135.799304,87.3816234 C136.923394,88.0463782 138.222388,88.4142857 139.581489,88.4142857 C143.685932,88.4142857 147.021127,85.0789518 147.021127,80.9697895 L147.021127,80.2302105 C147.021127,76.1199204 143.690157,72.7857143 139.581489,72.7857143 C138.390906,72.7857143 137.244468,73.0686943 136.220543,73.5885285 Z"></path>
                                </g>
                                <rect id="Rectangle-20" fill="#F09F9F" x="103.943662" y="63.8857143" width="6.68209256" height="10.4" rx="3.34104628"></rect>
                                <rect id="Rectangle-21" fill="#F09F9F" x="120.277666" y="74.2857143" width="7.42454728" height="4.45714286" rx="2.22857143"></rect>
                                <rect id="Rectangle-21-Copy" fill="#F09F9F" x="88.3521127" y="74.2857143" width="7.42454728" height="4.45714286" rx="2.22857143"></rect>
                                <rect id="Rectangle-22" fill="#3C4B63" x="91.3219316" y="64.6285714" width="4.45472837" height="5.94285714" rx="2.22736419"></rect>
                                <rect id="Rectangle-22-Copy" fill="#3C4B63" x="119.535211" y="64.6285714" width="4.45472837" height="5.94285714" rx="2.22736419"></rect>
                                <path d="M80.8195401,82.1379353 C80.8195401,82.1379353 79.332102,76.9612547 75.7303823,78.1880706" id="Path-10" stroke="#3C4B63" stroke-width="3" fill="#FFFFFF"></path>
                                <path d="M81.338512,73.7357932 C81.338512,73.7357932 80.0693832,80.8505048 81.7494586,87.918348" id="Path-37" stroke="#3C4B63" stroke-width="3" fill="#FFFFFF"></path>
                                <path d="M80.2899955,80.2285714 L77.2152918,83.0202309" id="Path-38" stroke="#3C4B63" stroke-width="3" fill="#FFFFFF"></path>
                                <path d="M137.354125,81.7345346 C137.354125,81.7345346 139.076918,78.6107125 142.886993,78.7472031" id="Path-39" stroke="#3C4B63" stroke-width="3" fill="#FFFFFF"></path>
                                <path d="M138.839034,80.2285714 C138.839034,80.2285714 140.591669,82.5211871 141.208208,84.8159354" id="Path-40" stroke="#3C4B63" stroke-width="3" fill="#FFFFFF"></path>
                                <g id="Path-43-Copy" transform="translate(99.488934, 78.742857)">
                                    <mask id="mask-6" fill="white">
                                        <use xlink:href="#path-5"></use>
                                    </mask>
                                    <use id="Mask" fill="#3C4B63" xlink:href="#path-5"></use>
                                    <path d="M2.12020224,-3.3400819 C4.51303614,-4.0741382 8.19266726,-2.60983757 13.7221706,-4.59066 C19.2516738,-6.57148243 17.0251594,5.01610936 9.51521065,5.95189727 C2.00526187,6.88768518 -0.272631664,-2.6060256 2.12020224,-3.3400819 Z" fill="#FFFFFF" mask="url(#mask-6)"></path>
                                    <path d="M6.18974843,13.0292943 C6.18974843,13.0292943 8.60431579,6.05240832 18.5768158,7.51160333 C28.5493157,8.97079833 6.18974843,13.0292943 6.18974843,13.0292943 Z" id="Path-2" fill="#EF9F9F" mask="url(#mask-6)"></path>
                                    <mask id="mask-8" fill="white">
                                        <use xlink:href="#path-7"></use>
                                    </mask>
                                    <path stroke="#3C4B63" stroke-width="2" d="M1.37639148,2.91447535 C2.22955134,2.70517046 3.00847991,2.68555717 5.38080697,2.75221017 C9.71326982,2.87393521 12.3231571,2.68480436 15.9212594,1.65402648 C18.242634,0.989003247 19.0496015,2.16446605 18.1901902,4.52859952 C17.1391583,7.4198572 14.1110788,9.85902632 10.2860903,10.2401823 C6.47912507,10.6195423 3.56013034,9.16104325 1.95886267,6.67409663 C0.768269251,4.82497275 0.780887009,3.0605699 1.37639148,2.91447535 L1.37639148,2.91447535 Z"></path>
                                </g>
                                <path d="M116.565392,58.5644376 C116.565392,58.5644376 119.521554,55.2625847 123.805601,58.9317003" id="Path-44" stroke="#3C4B63" stroke-width="3" fill="#FFFFFF"></path>
                                <path d="M90.5794769,59.9522302 C90.5794769,59.9522302 93.7199765,55.7845272 98.0040241,59.4536427" id="Path-44-Copy" stroke="#3C4B63" stroke-width="3" fill="#FFFFFF"></path>
                                <path d="M104.786371,114.157736 L55.7546637,90.6285714 L43.0623742,109.693592 L76.6567261,135.976281 C80.5702001,139.038004 83.406586,145.533625 82.9913491,150.492086 L78.3695954,205.681749 L94.8610624,209.912028" id="Path-43" stroke="#3C4B63" stroke-width="3" fill="#FFFFFF"></path>
                                <polyline id="Path-54" stroke="#3C4B63" stroke-width="3" fill="#FFFFFF" points="153.431453 179.470824 153.413651 201.95208 138.91959 200.09667 135.651603 177.77084"></polyline>
                                <g id="Path-45">
                                    <use fill="#FFFFFF" fill-rule="evenodd" xlink:href="#path-9"></use>
                                    <path stroke="#3C4B63" stroke-width="3" d="M49.9663913,120.589195 C51.1028136,121.483355 52.7173306,121.215836 53.4888125,119.98377 L67.3271644,97.8837525 C68.0600267,96.7133624 67.7060519,95.1693559 66.5310241,94.4442682 L58.7757238,89.6586169 C57.1451763,88.6524365 54.9932867,89.1230929 53.9314365,90.7252078 L41.432786,109.583115 C40.3904958,111.155718 40.7470409,113.33523 42.2295771,114.501719 L49.9663913,120.589195 L49.9663913,120.589195 Z"></path>
                                </g>
                                <path d="M114.338028,115.885714 C114.338028,115.885714 133.659278,116.214456 141.802416,129.265842 C149.945553,142.317227 155.624947,168.319893 155.624947,168.319893" id="Path-46" stroke="#3C4B63" stroke-width="3"></path>
                                <path d="M139.583613,168.869667 L140.600269,168.869667 L157.400285,168.869667 C159.040874,168.869667 160.370834,170.197398 160.370834,171.835972 L160.370834,176.303363 C160.370834,177.941607 159.040694,179.269667 157.397677,179.269667 L140.794938,179.269667 L139.585141,179.269667" id="Rectangle-23" stroke="#3C4B63" stroke-width="3" fill="#FFFFFF" transform="translate(149.977224, 174.069667) rotate(-10.000000) translate(-149.977224, -174.069667) "></path>
                                <path d="M135.869215,144.857143 C135.869215,144.857143 141.921764,186.673797 142.558434,202.270875 C143.195103,217.867953 113.512967,199.953997 113.512967,199.953997" id="Path-47" stroke="#3C4B63" stroke-width="3" fill="#FFFFFF"></path>
                                <path d="M83.1549296,148.557343 L84.4162025,130" id="Path-48" stroke="#3C4B63" stroke-width="3"></path>
                                <path d="M53.9763357,91.5326687 C44.694943,79.6161762 35.7799718,60.8971867 30.6767908,49.2545069 M14.8490946,46.3260434 C8.94549371,50.6501034 13.6640326,58.9172912 20.3772889,60.3000186 C27.1338437,76.6879495 38.5295403,101.995121 45.5331759,104.838845" id="Path-49" stroke="#3C4B63" stroke-width="3"></path>
                                <path d="M82.3659702,154.808146 C82.3659702,154.808146 87.0984653,149.786554 91.9707511,132.257118 M95.2821091,132.62684 C104.782295,133.687561 123.782668,135.809003 123.782668,135.809003 M127.942784,136.594052 C127.942784,136.594052 132.096485,155.041257 137.356568,159.524519" id="Path-50" stroke="#3C4B63" stroke-width="3"></path>
                                <polyline id="Path-51" stroke="#3C4B63" stroke-width="3" points="122.09365 116.953205 125.154871 143.681503 128.649773 143.983556 125.93906 117.99851"></polyline>
                                <polyline id="Path-52" stroke="#3C4B63" stroke-width="3" points="95.9989112 110.254878 90.2424477 141.453819 93.1347022 141.453819 100.198221 111.248144"></polyline>
                                <path d="M87.6096579,205.429588 C95.7813512,199.451069 94.434844,182.742857 94.434844,182.742857 L123.51598,182.742857 C123.51598,182.742857 123.986355,201.799464 131.746684,206.789185" id="Path-53" stroke="#3C4B63" stroke-width="3"></path>
                                <g id="Path-56">
                                    <mask id="mask-11" fill="white">
                                        <use xlink:href="#path-10"></use>
                                    </mask>
                                    <g id="Mask" transform="translate(16.872206, 30.045992) rotate(9.000000) translate(-16.872206, -30.045992) ">
                                        <use fill="#FFFFFF" fill-rule="evenodd" xlink:href="#path-10"></use>
                                        <path stroke="#3C4B63" stroke-width="3" d="M24.1295074,55.1002277 C24.0781522,56.1645006 23.2814574,56.9212841 22.1296937,56.9212841 L12.355733,56.9212841 C11.0322388,56.9212841 10.1058875,55.9005875 10.2220128,54.5582684 C10.230169,54.5144272 10.2574833,54.2873334 10.2916274,53.9519038 C10.3472356,53.405613 10.4025191,52.7456524 10.4539011,51.969352 C10.5995978,49.7681048 10.6867574,47.0694808 10.6867574,43.8521038 C10.6867574,40.9374279 10.0118767,34.2330118 8.84444881,24.7877741 C8.70505057,23.6599532 8.55976959,22.5029402 8.40920646,21.3204798 C7.91298683,17.4233768 7.38141612,13.4194379 6.84985221,9.52941356 C6.66380667,8.16791846 6.49104134,6.91784232 6.33597886,5.80680857 C6.28169135,5.41783464 6.23348903,5.07398746 6.19192482,4.77872072 C6.14977457,4.47976582 6.14977457,4.47976582 6.14081873,4.41662342 L6.14125737,4.41973946 C6.03933017,3.69011481 6.4932548,3.17070016 7.24050135,3.17070016 L26.5132184,3.17070016 C27.2551848,3.17070016 27.7067541,3.69187255 27.6025785,4.43046026 C27.5963898,4.47202616 27.5963898,4.47202616 27.5609626,4.71456574 C27.5260795,4.95423101 27.4856452,5.23462152 27.4401222,5.55341983 C27.3101726,6.46345888 27.1654207,7.49928862 27.0095645,8.64237738 C26.5643479,11.9077077 26.1191553,15.3793113 25.7035625,18.9091804 C25.3454951,21.950454 25.0258165,24.8988341 24.7543898,27.7052317 C24.1396483,34.0613099 23.7986693,39.402151 23.7986693,43.413264 C23.7986693,49.2120913 23.8548519,52.5417226 23.9508028,53.9792545 C23.9861314,54.5085469 24.0222751,54.7957298 24.1130083,55.0532994 C24.1189244,55.0700937 24.1243756,55.0856663 24.1295074,55.1002277 Z M26.9008907,52.9098672 L25.6234672,43.4234782 L24.1119505,54.2449002 C24.1153346,54.2214525 24.1194605,54.1992814 24.1272002,54.1677202 C24.1380472,54.1240942 24.1380472,54.1240942 24.170566,54.029323 C24.2188304,53.8911688 24.2188304,53.8911688 24.4809112,53.5425793 C25.2674079,52.9851523 25.2674079,52.9851523 26.4652358,53.4014213 C26.8897082,53.8751193 26.8602916,53.8229458 26.9425775,54.0565356 C26.9741394,54.146132 26.9777523,54.1649343 26.9773971,54.1621125 C26.9671943,54.0810446 26.9557396,53.9532094 26.9441423,53.7794582 C26.9286672,53.547611 26.9142148,53.258615 26.9008907,52.9098672 Z"></path>
                                    </g>
                                    <ellipse id="Oval-2" fill="#F7D777" mask="url(#mask-11)" cx="21.9024145" cy="12.2571429" rx="1.11368209" ry="1.11428571"></ellipse>
                                    <ellipse id="Oval-2-Copy" fill="#F7D777" mask="url(#mask-11)" cx="15.5915493" cy="6.68571429" rx="1" ry="1"></ellipse>
                                    <path d="M6.48980053,18.5323679 C6.48980053,18.5323679 10.6624984,16.9531586 14.5729908,16.9531586 C18.4834831,16.9531586 20.2796735,20.6437432 23.6639125,20.5128453 C27.0481514,20.3819475 32.8593668,10.1378947 32.8593668,10.1378947 L22.1522906,51.3500177 L20.925936,64.8983174 L19.3724064,66.6007293 L3.7121219,64.0929627 L1.95419983,60.9521533 L5.39578629,46.7708108 L6.48980053,18.5323679 Z" fill="#F7D877" mask="url(#mask-11)"></path>
                                    <mask id="mask-13" fill="white">
                                        <use xlink:href="#path-12"></use>
                                    </mask>
                                    <path stroke="#3C4B63" stroke-width="3" d="M24.1295074,55.1002277 C24.0781522,56.1645006 23.2814574,56.9212841 22.1296937,56.9212841 L12.355733,56.9212841 C11.0322388,56.9212841 10.1058875,55.9005875 10.2220128,54.5582684 C10.230169,54.5144272 10.2574833,54.2873334 10.2916274,53.9519038 C10.3472356,53.405613 10.4025191,52.7456524 10.4539011,51.969352 C10.5995978,49.7681048 10.6867574,47.0694808 10.6867574,43.8521038 C10.6867574,40.9374279 10.0118767,34.2330118 8.84444881,24.7877741 C8.70505057,23.6599532 8.55976959,22.5029402 8.40920646,21.3204798 C7.91298683,17.4233768 7.38141612,13.4194379 6.84985221,9.52941356 C6.66380667,8.16791846 6.49104134,6.91784232 6.33597886,5.80680857 C6.28169135,5.41783464 6.23348903,5.07398746 6.19192482,4.77872072 C6.14977457,4.47976582 6.14977457,4.47976582 6.14081873,4.41662342 L6.14125737,4.41973946 C6.03933017,3.69011481 6.4932548,3.17070016 7.24050135,3.17070016 L26.5132184,3.17070016 C27.2551848,3.17070016 27.7067541,3.69187255 27.6025785,4.43046026 C27.5963898,4.47202616 27.5963898,4.47202616 27.5609626,4.71456574 C27.5260795,4.95423101 27.4856452,5.23462152 27.4401222,5.55341983 C27.3101726,6.46345888 27.1654207,7.49928862 27.0095645,8.64237738 C26.5643479,11.9077077 26.1191553,15.3793113 25.7035625,18.9091804 C25.3454951,21.950454 25.0258165,24.8988341 24.7543898,27.7052317 C24.1396483,34.0613099 23.7986693,39.402151 23.7986693,43.413264 C23.7986693,49.2120913 23.8548519,52.5417226 23.9508028,53.9792545 C23.9861314,54.5085469 24.0222751,54.7957298 24.1130083,55.0532994 C24.1189244,55.0700937 24.1243756,55.0856663 24.1295074,55.1002277 Z M24.1119505,54.2449002 L24.1106975,54.2538707 C24.1111072,54.2508458 24.1115229,54.2478628 24.1119505,54.2449002 Z M26.9008907,52.9098672 L25.6234672,43.4234782 L24.1119505,54.2449002 C24.1153346,54.2214525 24.1194605,54.1992814 24.1272002,54.1677202 C24.1380472,54.1240942 24.1380472,54.1240942 24.170566,54.029323 C24.2188304,53.8911688 24.2188304,53.8911688 24.4809112,53.5425793 C25.2674079,52.9851523 25.2674079,52.9851523 26.4652358,53.4014213 C26.8897082,53.8751193 26.8602916,53.8229458 26.9425775,54.0565356 C26.9741394,54.146132 26.9777523,54.1649343 26.9773971,54.1621125 C26.9671943,54.0810446 26.9557396,53.9532094 26.9441423,53.7794582 C26.9286672,53.547611 26.9142148,53.258615 26.9008907,52.9098672 Z"></path>
                                    <ellipse id="Oval-2-Copy-2" fill="#FFFFFF" mask="url(#mask-13)" cx="18.1901408" cy="26.3714286" rx="1.11368209" ry="1.11428571"></ellipse>
                                    <ellipse id="Oval-2-Copy-3" fill="#FFFFFF" mask="url(#mask-13)" cx="12.9929577" cy="41.2285714" rx="1.11368209" ry="1.11428571"></ellipse>
                                    <ellipse id="Oval-2-Copy-4" fill="#FFFFFF" mask="url(#mask-13)" cx="16.334004" cy="49.0285714" rx="1" ry="1"></ellipse>
                                    <ellipse id="Oval-2-Copy-5" fill="#FFFFFF" mask="url(#mask-13)" cx="13.7354125" cy="32.3142857" rx="1" ry="1"></ellipse>
                                </g>
                                <rect id="Rectangle-24" stroke="#3C4B63" stroke-width="3" fill="#FFFFFF" x="4.45472837" y="23.0285714" width="6.68209256" height="8.17142857" rx="3.34104628"></rect>
                                <rect id="Rectangle-24-Copy" stroke="#3C4B63" stroke-width="3" fill="#FFFFFF" x="4.45472837" y="31.9428571" width="6.68209256" height="8.17142857" rx="3.34104628"></rect>
                                <rect id="Rectangle-24-Copy-2" stroke="#3C4B63" stroke-width="3" fill="#FFFFFF" x="4.45472837" y="41.6" width="5.1971831" height="6.68571429" rx="2.59859155"></rect>
                                <path d="M30.6824853,49.6934413 C30.6824853,49.6934413 28.2504001,39.7510886 28.2504001,36.5956747 C28.2504001,33.4402607 31.286176,21.5921071 28.9647497,20.9356578 C26.6433234,20.2792085 23.8634093,24.5850348 23.8634093,24.5850348 C23.8634093,24.5850348 21.8173585,27.8050317 22.3111947,33.5743107 C22.3111947,33.5743107 16.3063771,42.8241883 21.5293444,48.8347024" id="Path-55" stroke="#3C4B63" stroke-width="3" fill="#FFFFFF"></path>
                                <polygon id="Path-57" fill="#3C4B63" points="90.6168991 55.7387758 134.664158 56.7460942 116.360153 48.6875471 100.590241 49.1959758"></polygon>
                            </g>
                        </g>
                        <path d="M230.903183,118.165549 C233.553998,118.165549 232.859696,114.570226 235.312973,114.570226 C237.76625,114.570226 238.092916,117.837884 240.301967,117.837884 C242.511017,117.837884 241.830295,114.58276 244.267606,114.58276" id="Path-58" stroke="#52C2D3" stroke-width="3" fill="none" transform="translate(237.585394, 116.367888) rotate(-46.000000) translate(-237.585394, -116.367888) "></path>
                        <path d="M0.74221742,21.5941208 C3.39303176,21.5941208 2.6987306,17.9987972 5.15200759,17.9987972 C7.60528458,17.9987972 7.93195017,21.2664552 10.1410008,21.2664552 C12.3500515,21.2664552 11.6693291,18.0113315 14.1066398,18.0113315" id="Path-58-Copy" stroke="#52C2D3" stroke-width="3" fill="none" transform="translate(7.424429, 19.796459) rotate(-330.000000) translate(-7.424429, -19.796459) "></path>
                        <ellipse id="Oval-3" stroke="#F088B5" stroke-width="3" fill="none" cx="297.353119" cy="24.8857143" rx="2.59859155" ry="2.6"></ellipse>
                        <ellipse id="Oval-3-Copy-2" stroke="#76AFF4" stroke-width="3" fill="#DDE7FF" fill-rule="evenodd" cx="287.32998" cy="112.171429" rx="4.45472837" ry="4.45714286"></ellipse>
                        <ellipse id="Oval-3-Copy-3" stroke="#76AFF4" stroke-width="3" fill="#DDE7FF" fill-rule="evenodd" cx="41.2062374" cy="88.7714286" rx="3.34104628" ry="3.34285714"></ellipse>
                        <ellipse id="Oval-3-Copy" stroke="#F088B5" stroke-width="3" fill="none" cx="15.2203219" cy="121.457143" rx="2.59859155" ry="2.6"></ellipse>
                        <path d="M253.919517,52.1650794 L253.919517,54.8063492 M260.750588,55.4515447 L258.697936,57.1137497 M262.444703,62.8643766 L259.871128,62.2702201 M257.719836,68.7941761 L256.561979,66.4202185 M250.119199,68.7941761 L251.277055,66.4202185 M245.394332,62.8643766 L247.967906,62.2702201 M247.088446,55.4515447 L249.141098,57.1137497" id="Line" stroke="#52C2D3" stroke-width="2" fill="none" stroke-linecap="square"></path>
                        <path d="M253.919517,52.1650794 L253.919517,54.8063492 M260.750588,55.4515447 L258.697936,57.1137497 M262.444703,62.8643766 L259.871128,62.2702201 M257.719836,68.7941761 L256.561979,66.4202185 M250.119199,68.7941761 L251.277055,66.4202185 M245.394332,62.8643766 L247.967906,62.2702201 M247.088446,55.4515447 L249.141098,57.1137497" id="Line-Copy" stroke="#52C2D3" stroke-width="2" fill="none" stroke-linecap="square"></path>
                        <path d="M98.0040241,7.59365079 L98.0040241,10.2349206 M104.835095,10.8801161 L102.782443,12.5423211 M106.52921,18.292948 L103.955635,17.6987916 M101.804343,24.2227475 L100.646486,21.8487899 M94.2037056,24.2227475 L95.3615621,21.8487899 M89.4788386,18.292948 L92.0524129,17.6987916 M91.1729532,10.8801161 L93.2256054,12.5423211" id="Line-Copy-3" stroke="#52C2D3" stroke-width="2" fill="none" stroke-linecap="square"></path>
                        <path d="M98.0040241,7.59365079 L98.0040241,10.2349206 M104.835095,10.8801161 L102.782443,12.5423211 M106.52921,18.292948 L103.955635,17.6987916 M101.804343,24.2227475 L100.646486,21.8487899 M94.2037056,24.2227475 L95.3615621,21.8487899 M89.4788386,18.292948 L92.0524129,17.6987916 M91.1729532,10.8801161 L93.2256054,12.5423211" id="Line-Copy-2" stroke="#52C2D3" stroke-width="2" fill="none" stroke-linecap="square"></path>
                    </g>
                </g>
            </g>
        </g>
    </g>
</svg>