<?xml version="1.0" encoding="UTF-8" standalone="no"?>
<svg width="290px" height="272px" viewBox="0 0 290 272" version="1.1" xmlns="http://www.w3.org/2000/svg" xmlns:xlink="http://www.w3.org/1999/xlink">
    <!-- Generator: sketchtool 43.2 (39069) - http://www.bohemiancoding.com/sketch -->
    <title>AB403CEA-C676-456C-A80A-BEC31236DCA8</title>
    <desc>Created with sketchtool.</desc>
    <defs>
        <path d="M11.3254358,183.007182 C8.56739935,183.007182 6.66830581,180.790263 7.09959179,178.067787 C7.09959179,178.067787 21.1005613,81.5301556 42.5020796,77.0326695 C63.9035979,72.5351834 78.6667132,178.073218 78.6667132,178.073218 C79.0744068,180.798171 77.1579948,183.007182 74.411041,183.007182 L11.3254358,183.007182 Z" id="path-1"></path>
        <rect id="path-2" x="40.32" y="62.7987321" width="7.2" height="23.8202087" rx="3.6"></rect>
        <path d="M19.4772916,38.3020504 C20.1733215,25.8018594 30.5255381,15.8801392 43.2,15.8801392 C55.6977803,15.8801392 65.9418494,25.5234272 66.888598,37.7877596 C67.8439067,37.1709998 68.9810658,36.8130499 70.2,36.8130499 C73.5799827,36.8130499 76.32,39.5624239 76.32,42.9354214 L76.32,45.1271685 C76.32,48.5084609 73.5731051,51.24954 70.2,51.24954 C68.8757992,51.24954 67.6498264,50.8275399 66.6483655,50.1113689 C64.8055281,61.4009419 55.0110845,70.0169772 43.2,70.0169772 C31.2082066,70.0169772 21.2913304,61.1387216 19.6716436,49.5856085 C18.5754628,50.6173268 17.0999472,51.24954 15.48,51.24954 C12.1000173,51.24954 9.36,48.500166 9.36,45.1271685 L9.36,42.9354214 C9.36,39.5541289 12.1068949,36.8130499 15.48,36.8130499 C17.0078508,36.8130499 18.4049372,37.3748305 19.4772916,38.3020504 Z" id="path-3"></path>
        <path d="M3.69694357,119.515648 C2.33247319,113.909037 10.926512,108.192376 16.2675401,106.416199 C21.6085681,104.640023 56.1747576,101.810684 56.1747576,101.810684 L65.742575,104.113442 L61.6463039,113.551925 L53.139339,109.663774 C53.139339,109.663774 24.1344908,122.922452 18.2528681,122.950852 C12.3712453,122.979251 5.06141395,125.12226 3.69694357,119.515648 Z" id="path-4"></path>
        <path d="M77.8989034,106.416199 C77.8989034,106.416199 41.4167797,122.922452 35.535157,122.950852 C29.6535342,122.979251 22.3437029,125.12226 20.9792325,119.515648 C19.6147621,113.909037 28.2088009,108.192376 33.549829,106.416199 C38.890857,104.640023 67.479528,100.396269 67.479528,100.396269 C67.479528,100.396269 69.8465407,100.367112 75.1720369,100.367112 C80.4975331,100.367112 80.3676356,100.712682 80.3676356,100.712682 C83.6267315,101.270479 83.926152,103.036316 81.0393386,104.655146 L77.8989034,106.416199 Z" id="path-5"></path>
        <path d="M7.92,20.1581502 L7.92,6.50113875 L7.92,6.50113875 C7.92,5.70122763 8.55916534,5.05277155 9.36,5.05277155 L9.36,5.05277155 C10.15529,5.05277155 10.8,5.695743 10.8,6.50115023 L10.8,20.0164707" id="path-6"></path>
        <rect id="path-7" x="0" y="1.59561207" width="15.8823529" height="6.91431896" rx="3.45715948"></rect>
        <rect id="path-8" x="0" y="0" width="3.17647059" height="10.1055431" rx="1.58823529"></rect>
        <rect id="path-9" x="14.8235294" y="0" width="3.17647059" height="10.1055431" rx="1.58823529"></rect>
    </defs>
    <g id="Maker-Signup" stroke="none" stroke-width="1" fill="none" fill-rule="evenodd">
        <g id="Promo-Magic---Apply---Step-2---Personal-Information" transform="translate(-328.000000, -262.000000)">
            <g id="Group-6" transform="translate(295.000000, 179.000000)">
                <rect id="Rectangle" fill="#D8D8D8" opacity="0" x="0" y="0" width="371" height="418"></rect>
                <g id="Group-16" transform="translate(33.000000, 83.000000)">
                    <rect id="Rectangle-14" fill="#ECEFF6" x="44.8" y="144.231183" width="174.4" height="11.2150538" rx="5.60752688"></rect>
                    <rect id="Rectangle-18" fill="#ECEFF6" x="152" y="7" width="88" height="105.04855" rx="6"></rect>
                    <rect id="Rectangle-19" fill="#ECEFF6" x="87" y="224" width="75" height="34"></rect>
                    <rect id="Rectangle-19-Copy" fill="#ECEFF6" x="237" y="241" width="51" height="17"></rect>
                    <rect id="Rectangle-19-Copy-2" fill="#D4DBEA" x="84" y="216" width="81" height="9"></rect>
                    <rect id="Rectangle-19-Copy-3" fill="#D4DBEA" x="235" y="232" width="55" height="9"></rect>
                    <rect id="Rectangle-17" fill="#ECEFF6" x="76.8" y="128.209677" width="55.2" height="16.8225806"></rect>
                    <g id="Group-15" transform="translate(104.800000, 0.037634)">
                        <rect id="Rectangle-10" stroke="#3C4B63" stroke-width="3" fill="#FFFFFF" x="26.64" y="233.149316" width="10.08" height="18.7674372"></rect>
                        <rect id="Rectangle-10-Copy" stroke="#3C4B63" stroke-width="3" fill="#FFFFFF" x="49.68" y="233.149316" width="10.08" height="18.7674372"></rect>
                        <path d="M16.074711,40.3407871 C16.074711,40.3407871 10.1603077,24.8676912 14.7281052,19.0226526 C19.2959027,13.177614 24.011315,15.3301778 24.011315,15.3301778 C24.011315,15.3301778 22.962528,-2.87037001 51.3061075,1.28210305 C68.7628361,4.918694 78.3567593,22.1888789 78.092498,23.6967085 C77.8282367,25.204538 72.8124338,29.2540486 72.8124338,29.2540486 C72.8124338,29.2540486 77.977916,26.8034375 76.3593156,30.3479236 C74.7407153,33.8924097 72.4459777,42.0721521 72.4459777,42.0721521 L16.074711,40.3407871 Z" id="Path-6" fill="#3C4B63"></path>
                        <g id="Group-10" transform="translate(15.840000, 181.177951)">
                            <polyline id="Path-12" fill="#3C4B63" points="0 2.94633077 3.3620167 51.1759517 22.8781679 51.1759517 24.6825836 0"></polyline>
                            <path d="M2.7,45.8358562 L20.1413302,45.8358562" id="Line" stroke="#FFFFFF" stroke-width="3"></path>
                        </g>
                        <g id="Group-10-Copy" transform="translate(58.060000, 207.177951) scale(-1, 1) translate(-58.060000, -207.177951) translate(45.560000, 181.177951)">
                            <polyline id="Path-12" fill="#3C4B63" points="0 2.94633077 3.3620167 51.1759517 22.8781679 51.1759517 24.6825836 0"></polyline>
                            <path d="M2.7,45.8358562 L20.1413302,45.8358562" id="Line" stroke="#FFFFFF" stroke-width="3"></path>
                        </g>
                        <g id="Path-22">
                            <use fill="#FFFFFF" fill-rule="evenodd" xlink:href="#path-1"></use>
                            <path stroke="#3C4B63" stroke-width="3" d="M11.3254358,184.507182 L74.411041,184.507182 C78.0776052,184.507182 80.6931452,181.480208 80.1502015,177.851266 C80.1450085,177.81366 80.1450085,177.81366 80.1103374,177.570363 C80.0758317,177.329369 80.034643,177.045134 79.9868293,176.719199 C79.8503951,175.789161 79.6881571,174.710854 79.5005773,173.496617 C78.9649278,170.029264 78.3334764,166.166417 77.609901,162.006729 C75.5421873,150.119866 73.1503355,138.23203 70.4627908,127.130134 C62.141425,92.7556611 53.089416,73.2749982 42.1935957,75.564733 C32.1519441,77.6749659 23.5677053,96.5194695 15.7681967,127.098419 C12.9354432,138.204583 10.4256465,150.096576 8.26496398,161.98754 C7.50886104,166.148629 6.85031799,170.012802 6.29274188,173.481398 C6.09747553,174.69612 5.92874202,175.774885 5.7869699,176.705352 C5.73728072,177.031468 5.6944935,177.315877 5.65866189,177.557037 C5.63706752,177.702374 5.62265677,177.800555 5.61512275,177.852493 C5.04252786,181.466155 7.64527842,184.507182 11.3254358,184.507182 Z"></path>
                        </g>
                        <g id="Rectangle-8">
                            <use fill="#FFFFFF" fill-rule="evenodd" xlink:href="#path-2"></use>
                            <rect stroke="#3C4B63" stroke-width="3" x="38.82" y="61.2987321" width="10.2" height="26.8202087" rx="5.1"></rect>
                        </g>
                        <g id="Combined-Shape">
                            <use fill="#FFFFFF" fill-rule="evenodd" xlink:href="#path-3"></use>
                            <path stroke="#3C4B63" stroke-width="3" d="M18.2267202,35.8246111 C17.3629742,35.4901938 16.4345796,35.3130499 15.48,35.3130499 C11.2762229,35.3130499 7.86,38.7279457 7.86,42.9354214 L7.86,45.1271685 C7.86,49.3310141 11.2740067,52.74954 15.48,52.74954 C16.5790777,52.74954 17.6432902,52.5144229 18.6134756,52.0757354 C21.2590499,63.3188355 31.3526747,71.5169772 43.2,71.5169772 C54.9382685,71.5169772 64.9783533,63.4596483 67.7229576,52.3365665 C68.510141,52.6075387 69.3450169,52.74954 70.2,52.74954 C74.4037771,52.74954 77.82,49.3346441 77.82,45.1271685 L77.82,42.9354214 C77.82,38.7315758 74.4059933,35.3130499 70.2,35.3130499 C69.4942542,35.3130499 68.8016646,35.4098555 68.1378445,35.5964949 C66.1948534,23.5047006 55.7126436,14.3801392 43.2,14.3801392 C30.5923865,14.3801392 20.0719836,23.6404568 18.2267202,35.8246111 Z"></path>
                        </g>
                        <rect id="Rectangle-9" fill="#3C4B63" x="54" y="38.9785234" width="4.32" height="5.77459606" rx="2.16"></rect>
                        <rect id="Rectangle-9-Copy" fill="#3C4B63" x="29.52" y="38.9785234" width="4.32" height="5.77459606" rx="2.16"></rect>
                        <rect id="Rectangle-3" fill="#F09F9F" x="40.32" y="37.5348744" width="7.2" height="12.9928411" rx="3.6"></rect>
                        <rect id="Rectangle-7" fill="#F09F9F" x="53.28" y="46.918593" width="7.92" height="5.77459606" rx="2.88729803"></rect>
                        <rect id="Rectangle-7-Copy" fill="#F09F9F" x="27.36" y="46.918593" width="7.92" height="5.77459606" rx="2.88729803"></rect>
                        <path d="M18.8303487,37.0405342 C18.8303487,37.0405342 26.9212858,33.7527 27.379614,22.3265188 L20.586241,24.694339 L18.8303487,37.0405342 Z" id="Path-7" fill="#3C4B63"></path>
                        <path d="M20.0707007,18.4659013 C20.0707007,18.4659013 36.0703004,32.1067219 64.2554176,26.820522 L56.529467,11.2755103 L39.7406175,6.0410547 L20.0707007,18.4659013 Z" id="Path-8" fill="#3C4B63"></path>
                        <path d="M66.24,45.1263599 C66.24,45.1263599 68.3829036,41.1439969 72.248362,41.1439969" id="Path-9" stroke="#3C4B63" stroke-width="3" fill="#FFFFFF"></path>
                        <path d="M67.68,42.5876459 C67.68,42.5876459 70.5716501,44.293495 70.5716501,46.8131999" id="Path-11" stroke="#3C4B63" stroke-width="3" fill="#FFFFFF"></path>
                        <g id="Group-8" transform="translate(15.940000, 44.143997) scale(-1, 1) translate(-15.940000, -44.143997) translate(12.440000, 41.143997)" stroke="#3C4B63" stroke-width="3" fill="#FFFFFF">
                            <path d="M0,3.98236299 C0,3.98236299 2.14290363,0 6.00836199,0" id="Path-9-Copy"></path>
                            <path d="M1.44,1.44364901 C1.44,1.44364901 4.33165009,3.14949806 4.33165009,5.66920304" id="Path-11-Copy"></path>
                        </g>
                        <path d="M51.8846678,29.171128 C51.8846678,29.171128 57.8286221,26.2232082 59.3542506,30.9828809" id="Path-20" stroke="#3C4B63" stroke-width="3" fill="#FFFFFF"></path>
                        <path d="M36.0991003,54.1060064 C36.0991003,54.1060064 40.8603292,60.7965226 49.9907908,56.7749049" id="Path-13" stroke="#3C4B63" stroke-width="3" fill="#FFFFFF"></path>
                        <path d="M39.2402766,61.7644551 L42.3331042,62.9583379" id="Path-14" stroke="#3C4B63" stroke-width="3" fill="#FFFFFF"></path>
                        <path d="M34.7326452,33.2801477 C34.7326452,33.2801477 31.9022525,30.15544 26.8176783,33.3857945" id="Path-21" stroke="#3C4B63" stroke-width="3" fill="#FFFFFF"></path>
                        <g id="Path-15">
                            <use fill="#FFFFFF" fill-rule="evenodd" xlink:href="#path-4"></use>
                            <path stroke="#3C4B63" stroke-width="3" d="M53.1374753,111.312171 L61.0227633,114.916182 L62.4135232,115.551836 L63.022304,114.149105 L67.1185752,104.710621 L67.8293619,103.072851 L66.0935685,102.655085 L56.5257511,100.352328 L56.292006,100.29607 L56.0523877,100.315684 C55.9721029,100.322256 55.9721029,100.322256 55.5943898,100.35359 C55.2219376,100.384597 54.7900054,100.42089 54.3035461,100.462167 C52.9140555,100.580067 51.3659265,100.714285 49.6987692,100.862411 C44.9349527,101.285674 40.1709083,101.735623 35.722944,102.193065 C31.9108792,102.58511 28.504354,102.965246 25.6060023,103.327376 C20.5997446,103.952874 17.2772979,104.499632 15.7941978,104.992842 C8.06387626,107.563585 0.813189896,114.009702 2.23948397,119.870347 L2.23948397,119.870347 C2.88291144,122.514192 4.65166025,124.038258 7.29844146,124.600505 C9.09822967,124.982827 10.674877,124.955371 14.4630883,124.658897 C14.6538183,124.643973 14.6538183,124.643973 14.8439746,124.629185 C16.4150121,124.507372 17.3325907,124.455313 18.2601108,124.450834 C20.8649429,124.438256 26.9102498,122.392296 35.7440371,118.805007 C36.6270003,118.446447 37.5302205,118.075253 38.4514517,117.692572 C41.9614884,116.234496 45.583146,114.673053 49.1131507,113.111687 C50.3485621,112.565249 51.484425,112.057785 52.4952509,111.602252 C52.727144,111.497749 52.9415174,111.400903 53.1374753,111.312171 Z"></path>
                        </g>
                        <g id="Group-11" transform="translate(0.000000, 77.957047)" stroke="#3C4B63" stroke-width="3">
                            <path d="M37.2358641,0 C37.2358641,0 18.9783427,2.89529467 5.04,23.6999014" id="Path-16" fill="#FFFFFF"></path>
                            <path d="M20.9520713,25.6322932 C20.9520713,25.6322932 9.19724001,21.1268475 3.97727004,24.5563782 C-1.24269993,27.985909 -0.693316239,41.5642703 2.34314227,42.7882167" id="Path-17"></path>
                        </g>
                        <g id="Group-11-Copy" transform="translate(67.700000, 99.957047) scale(-1, 1) translate(-67.700000, -99.957047) translate(48.200000, 77.957047)" stroke="#3C4B63" stroke-width="3" fill="#FFFFFF">
                            <path d="M38.0358641,-5.68434189e-14 C38.0358641,-5.68434189e-14 19.7783427,2.89529467 5.84,23.6999014 C-8.0983427,44.5045081 11.1431734,43.0542392 11.1431734,43.0542392 L20.3340515,42.3245747" id="Path-16"></path>
                            <path d="M21.7520713,25.6322932 C21.7520713,25.6322932 9.99724001,21.1268475 4.77727004,24.5563782 C-0.442699931,27.985909 0.106683761,41.5642703 3.14314227,42.7882167" id="Path-17"></path>
                        </g>
                        <path d="M13.3014394,124.9508 L11.7873651,147.86377" id="Path-18" stroke="#3C4B63" stroke-width="3" fill="#FFFFFF"></path>
                        <g id="Path-15-Copy" transform="translate(51.928513, 111.871742) scale(-1, 1) translate(-51.928513, -111.871742) ">
                            <use fill="#FFFFFF" fill-rule="evenodd" xlink:href="#path-5"></use>
                            <path stroke="#3C4B63" stroke-width="3" d="M80.9191379,99.29023 C80.9063808,99.2845244 80.8935655,99.2789389 80.8806965,99.2734729 C80.6410312,99.1716768 80.356279,99.1064131 79.9696716,99.0536662 C79.0960282,98.9344704 77.5642845,98.8671121 75.1720369,98.8671121 C72.8392741,98.8671121 70.8947673,98.8725872 69.3200262,98.8817158 C68.7683269,98.884914 68.3021377,98.8883424 67.9191471,98.8917735 C67.6886416,98.8938385 67.5367139,98.8954509 67.4610523,98.8963829 L67.2592786,98.9125271 C67.1904636,98.9227423 67.1904636,98.9227423 66.8668078,98.9711096 C66.5476677,99.0188869 66.1775646,99.074552 65.7607418,99.1375555 C64.5701674,99.317513 63.2436692,99.5202278 61.8151847,99.7413075 C57.7333543,100.373033 53.6513241,101.025439 49.8400911,101.663485 C48.5162899,101.885105 47.2459069,102.101593 46.0357225,102.312074 C39.4488465,103.457699 34.9613434,104.366026 33.0764867,104.992842 C25.3461652,107.563585 18.0954788,114.009702 19.5217729,119.870347 C20.1652003,122.514192 21.9339492,124.038258 24.5807304,124.600505 C26.3805186,124.982827 27.9571659,124.955371 31.7453772,124.658897 C31.9361072,124.643973 31.9361072,124.643973 32.1262635,124.629185 C33.697301,124.507372 34.6148796,124.455313 35.5423997,124.450834 C38.2185828,124.437912 45.639314,121.792386 56.8917907,117.142845 C57.7381716,116.793119 58.6003137,116.434283 59.476856,116.067009 C63.802331,114.254619 68.2981779,112.313448 72.7025344,110.372352 C74.2439569,109.693013 75.6639597,109.062156 76.9297416,108.495913 C77.3729552,108.297643 77.7652982,108.121582 78.102669,107.969747 C78.305406,107.878504 78.4445487,107.815711 78.5172309,107.782827 L78.5172309,107.782827 L78.6325724,107.72453 L81.7730077,105.963477 C85.8014827,103.70444 85.2993964,100.188004 80.9191379,99.29023 Z"></path>
                        </g>
                        <g id="Group-14" transform="translate(15.232896, 159.568199) rotate(-47.000000) translate(-15.232896, -159.568199) translate(6.232896, 149.068199)">
                            <g id="Group-13">
                                <g id="Rectangle-13">
                                    <use fill="#FFFFFF" fill-rule="evenodd" xlink:href="#path-6"></use>
                                    <path stroke="#3C4B63" stroke-width="3" d="M6.42,20.1581502 L6.42,21.7337555 L7.99370225,21.6563384 L10.8737022,21.514659 L12.3,21.4444933 L12.3,20.0164707 L12.3,6.50115023 C12.3,4.87027784 10.9866769,3.55277155 9.36,3.55277155 C7.72980024,3.55277155 6.42,4.87369567 6.42,6.50113875 L6.42,20.1581502 Z"></path>
                                </g>
                                <g id="Rectangle-12">
                                    <use fill="#FFFFFF" fill-rule="evenodd" xlink:href="#path-7"></use>
                                    <rect stroke="#3C4B63" stroke-width="3" x="-1.5" y="0.0956120679" width="18.8823529" height="9.91431896" rx="4.95715948"></rect>
                                </g>
                                <g id="Rectangle-12-Copy">
                                    <use fill="#FFFFFF" fill-rule="evenodd" xlink:href="#path-8"></use>
                                    <rect stroke="#3C4B63" stroke-width="3" x="-1.5" y="-1.5" width="6.17647059" height="13.1055431" rx="3.08823529"></rect>
                                </g>
                                <g id="Rectangle-12-Copy-2">
                                    <use fill="#FFFFFF" fill-rule="evenodd" xlink:href="#path-9"></use>
                                    <rect stroke="#3C4B63" stroke-width="3" x="13.3235294" y="-1.5" width="6.17647059" height="13.1055431" rx="3.08823529"></rect>
                                </g>
                            </g>
                        </g>
                        <path d="M19.2183775,168.494281 C28.2646408,161.652139 25.9453633,149.056761 25.9453633,149.056761 L60.2583129,149.056761 C60.2583129,149.056761 60.2188746,162.06236 67.0343545,167.824198" id="Path-19" stroke="#3C4B63" stroke-width="3"></path>
                        <path d="M18.2024867,175.114513 L68.343514,175.114513" id="Path-23" stroke="#3C4B63" stroke-width="3"></path>
                        <path d="M30.9677071,98.1301838 C30.9677071,98.1301838 30.4423778,91.3770483 38.0659774,79.4006958" id="Path-24" stroke="#3C4B63" stroke-width="3" fill="#FFFFFF"></path>
                        <path d="M48.96,100.727127 C48.96,100.727127 49.6519665,91.3770483 57.2755661,79.4006958" id="Path-24-Copy" stroke="#3C4B63" stroke-width="3" fill="#FFFFFF" transform="translate(53.117783, 90.063911) scale(-1, 1) translate(-53.117783, -90.063911) "></path>
                        <g id="Group-12" transform="translate(5.760000, 251.194928)" stroke="#3C4B63" stroke-width="3">
                            <path d="M21.6994379,0.165250842 C21.6994379,0.165250842 11.0713873,9.19663384 2.68367222,10.8560694 C1.15377225,10.9715881 0.894236286,12.538653 0.789059873,13.5315315 C0.68388346,14.5244099 0.321076035,16.6835546 0.789059873,16.8013872 C2.68003671,17.7031399 10.0968776,19.7855319 19.2862438,16.8013872 C28.4756099,13.8172425 26.45021,10.5338811 29.5879164,9.64637086 C32.7256228,8.75886059 30.6757255,0.165250842 30.6757255,0.165250842" id="Path-25"></path>
                            <path d="M1.99619772,11.6380337 C1.99619772,11.6380337 8.58909829,12.7918803 14.6160822,12.0763229 C20.6430662,11.3607655 21.8170805,11.3133061 25.1598917,7.55999524" id="Path-26"></path>
                        </g>
                        <g id="Group-12-Copy" transform="translate(64.640000, 260.694928) scale(-1, 1) translate(-64.640000, -260.694928) translate(48.640000, 251.194928)" stroke="#3C4B63" stroke-width="3">
                            <path d="M21.6994379,0.165250842 C21.6994379,0.165250842 11.0713873,9.19663384 2.68367222,10.8560694 C1.15377225,10.9715881 0.894236286,12.538653 0.789059873,13.5315315 C0.68388346,14.5244099 0.321076035,16.6835546 0.789059873,16.8013872 C2.68003671,17.7031399 10.0968776,19.7855319 19.2862438,16.8013872 C28.4756099,13.8172425 26.45021,10.5338811 29.5879164,9.64637086 C32.7256228,8.75886059 30.6757255,0.165250842 30.6757255,0.165250842" id="Path-25"></path>
                            <path d="M1.99619772,11.6380337 C1.99619772,11.6380337 8.58909829,12.7918803 14.6160822,12.0763229 C20.6430662,11.3607655 21.8170805,11.3133061 25.1598917,7.55999524" id="Path-26"></path>
                        </g>
                        <path d="M31.1096223,169.812145 L38.6818327,175.426939" id="Path-27" stroke="#3C4B63" stroke-width="3"></path>
                    </g>
                    <polygon id="Path-28" fill="#ECEFF6" points="62.5532863 152.51383 45.7429097 256.273698 54.7583488 256.273698 77.4895148 151.225149"></polygon>
                    <polygon id="Rectangle-15" fill="#ECEFF6" points="3.2 215.526882 42.4 215.526882 38.4 257.182796 7.2 257.182796"></polygon>
                    <polygon id="Path-29" fill="#D4DBEA" points="62.2569425 155.51286 60.1250379 167.477533 74.0144166 167.477533 76.7806702 154.500738"></polygon>
                    <rect id="Rectangle-16" fill="#D4DBEA" x="2.4" y="215.526882" width="40.8" height="8.01075269"></rect>
                    <path d="M22.4,203.973131 C22.4,203.973131 23.5819434,174.402563 37.7363687,162.655914" id="Path-33" stroke="#D4DBEA" stroke-width="2"></path>
                    <path d="M26.5160841,190.649983 C26.5160841,190.649983 29.3637476,182.369926 34.3907357,180.709434 C34.3907357,180.709434 32.8480572,188.90642 30.2259697,190.546377 C27.6038822,192.186335 26.5160841,190.649983 26.5160841,190.649983 Z" id="Path-34" fill="#ECEFF6" transform="translate(30.453410, 186.006273) rotate(28.000000) translate(-30.453410, -186.006273) "></path>
                    <path d="M30.4445447,182.11613 C30.4445447,182.11613 33.153721,174.238747 37.9362374,172.659008 C37.9362374,172.659008 36.4685822,180.457359 33.9740117,182.017562 C31.4794411,183.577766 30.4445447,182.11613 30.4445447,182.11613 Z" id="Path-34-Copy" fill="#ECEFF6" transform="translate(34.190391, 177.698252) rotate(44.000000) translate(-34.190391, -177.698252) "></path>
                    <path d="M34.6815589,172.454098 C34.6815589,172.454098 36.7668041,166.390899 40.4478931,165.174978 C40.4478931,165.174978 39.3182431,171.177347 37.3981794,172.378231 C35.4781158,173.579115 34.6815589,172.454098 34.6815589,172.454098 Z" id="Path-34-Copy-2" fill="#ECEFF6" transform="translate(37.564726, 169.053670) rotate(44.000000) translate(-37.564726, -169.053670) "></path>
                    <path d="M24.5704501,168.736763 C24.5704501,168.736763 26.6556952,162.673564 30.3367842,161.457643 C30.3367842,161.457643 29.2071343,167.460012 27.2870706,168.660896 C25.3670069,169.86178 24.5704501,168.736763 24.5704501,168.736763 Z" id="Path-34-Copy-3" fill="#ECEFF6" transform="translate(27.453617, 165.336335) scale(-1, 1) rotate(9.000000) translate(-27.453617, -165.336335) "></path>
                    <path d="M19.1264135,177.553404 C19.1264135,177.553404 21.6868476,170.108513 26.2067892,168.615507 C26.2067892,168.615507 24.8197127,175.985705 22.4621018,177.460248 C20.1044909,178.934792 19.1264135,177.553404 19.1264135,177.553404 Z" id="Path-34-Copy-4" fill="#ECEFF6" transform="translate(22.666601, 173.378081) scale(-1, 1) rotate(9.000000) translate(-22.666601, -173.378081) "></path>
                    <path d="M17.9050636,212.221315 C17.9050636,212.221315 8.51991975,208.326597 8.51991975,204.264512 C8.51991975,200.202426 10.6258494,196.351918 8.51991975,193.566668 C6.41399013,190.781419 0.109801418,188.369851 0.109801418,181.817251 C0.109801418,175.264651 -0.458266035,168.431 4.27458324,167.892055 C9.00743252,167.353111 21.0906353,174.419392 22.5458504,178.118322 C24.0010656,181.817251 22.6379129,187.356538 24.5471636,188.699323 C26.4564142,190.042109 33.8046753,201.488736 26.5599845,209.165541 C19.3152937,216.842346 17.9050636,212.221315 17.9050636,212.221315 Z" id="Path-31" fill="#ECEFF6"></path>
                    <g id="Group-16-Copy" transform="translate(201.600000, 203.639785) scale(-1, 1) translate(-201.600000, -203.639785) translate(185.600000, 150.639785)">
                        <polygon id="Path-28" fill="#ECEFF6" points="16.9532863 1.87404466 0.142909659 105.633914 9.15834884 105.633914 31.8895148 0.585363651"></polygon>
                        <polygon id="Path-29" fill="#D4DBEA" points="16.6569425 4.8730753 14.5250379 16.8377484 28.4144166 16.8377484 31.1806702 3.86095278"></polygon>
                    </g>
                    <path d="M23.492569,218.431139 C23.492569,218.431139 20.9799935,187.741657 6.89075062,174.50476" id="Path-30" stroke="#D4DBEA" stroke-width="2"></path>
                    <path d="M17.887134,192.621691 C17.887134,192.621691 8.82121768,189.892473 4.8,189.892473" id="Path-32" stroke="#D4DBEA" stroke-width="2"></path>
                    <polyline id="Path-35" stroke="#D4DBEA" stroke-width="3" points="53.464535 144.218939 50.4 110.639226 84.0035394 77.7419355"></polyline>
                    <ellipse id="Oval" fill="#ECEFF6" cx="50.8" cy="110.185484" rx="4.4" ry="4.40591398"></ellipse>
                    <ellipse id="Oval-Copy" fill="#ECEFF6" cx="84.4" cy="78.1424731" rx="4.4" ry="4.40591398"></ellipse>
                    <path d="M94.2280979,97.0859675 C94.2280979,97.0859675 80.5127322,87.0480175 85.0845208,77.5326864 C89.6563093,68.0173554 108.671011,74.6430132 108.671011,74.6430132 L94.2280979,97.0859675 Z" id="Path-36" fill="#ECEFF6"></path>
                </g>
            </g>
        </g>
    </g>
</svg>